<svg xmlns="http://www.w3.org/2000/svg" viewBox="0 0 1024 1024">
  <rect x="64" y="64" width="896" height="896" rx="176" fill="#20242B"/>
  <g fill="#687386">
    <rect x="144" y="144" width="216" height="216" rx="52"/>
    <rect x="404" y="144" width="216" height="216" rx="52"/>
    <rect x="664" y="144" width="216" height="216" rx="52"/>
    <rect x="144" y="404" width="216" height="216" rx="52"/>
    <rect x="404" y="404" width="216" height="216" rx="52"/>
    <rect x="144" y="664" width="216" height="216" rx="52"/>
    <rect x="404" y="664" width="216" height="216" rx="52"/>
  </g>
  <rect x="664" y="404" width="216" height="476" rx="52" fill="#FFB900"/>
  <g fill="#20242B">
    <rect x="718" y="592" width="108" height="126" rx="28"/>
    <path d="M744 596v-38c0-45 36-81 81-81s81 36 81 81v38h-48v-38c0-19-15-34-33-34s-33 15-33 34v38z" transform="translate(-80 0)"/>
    <circle cx="772" cy="650" r="18"/>
    <rect x="762" y="650" width="20" height="38" rx="10"/>
  </g>
</svg>
