<svg xmlns="http://www.w3.org/2000/svg" width="1024" height="1024" viewBox="0 0 1024 1024">
  <rect x="80" y="80" width="864" height="864" rx="128" fill="#232833"/>
  <g fill="#636C80">
    <rect x="148" y="148" width="212" height="212" rx="46"/>
    <rect x="406" y="148" width="212" height="212" rx="46"/>
    <rect x="664" y="148" width="212" height="212" rx="46"/>
    <rect x="148" y="406" width="212" height="212" rx="46"/>
    <rect x="406" y="406" width="212" height="212" rx="46"/>
    <rect x="148" y="664" width="212" height="212" rx="46"/>
    <rect x="406" y="664" width="212" height="212" rx="46"/>
  </g>
  <rect x="664" y="406" width="212" height="470" rx="46" fill="#D9DDE5"/>
  <g fill="#232833">
    <path d="M512 512"/>
    <path d="M781.6 592.6v-37.5c0-45.8-37.1-82.9-82.9-82.9s-82.9 37.1-82.9 82.9v37.5c-16.2 7.6-27.4 24-27.4 43.1v94.9c0 26.3 21.3 47.6 47.6 47.6h125.6c26.3 0 47.6-21.3 47.6-47.6v-94.9c0-19.1-11.2-35.5-27.6-43.1zm-110.4-37.5c0-15.2 12.3-27.5 27.5-27.5s27.5 12.3 27.5 27.5v29.5h-55z"/>
    <path d="M715.7 678.8c0 6.6-2.1 12.6-5.7 17.5v25.4c0 6.2-5.1 11.3-11.3 11.3s-11.3-5.1-11.3-11.3v-25.4c-3.6-4.9-5.7-10.9-5.7-17.5 0-16.1 13-29.1 29.1-29.1s28.9 13 28.9 29.1z"/>
  </g>
</svg>
